<svg height="16" width="16" xmlns="http://www.w3.org/2000/svg" xmlns:xlink="http://www.w3.org/1999/xlink"><defs><path id="a" d="m11.87498577 4.125c0 2.13867072-1.73632368 3.875-3.87498749 3.875-2.13866382 0-3.87498749-1.73632928-3.87498749-3.875" fill-rule="evenodd"/></defs><g><path d="m2 0h12c1.10383005 0 2 .89616995 2 2v12c0 1.10383005-.89616995 2-2 2h-12c-1.10383005 0-2-.89616995-2-2v-12c0-1.10383005.89616995-2 2-2z" fill="#f36" fill-rule="evenodd"/><g><path d="m11.875 8c0 2.13867072-1.73632367 3.875-3.87498749 3.875-2.13866381 0-3.87498749-1.73632928-3.87498749-3.875" fill="none" stroke="#fff"/><g transform="matrix(1 0 0 -1 0 12.125)"><use fill="#fff" xlink:href="#a"/><use fill="none" stroke="#fff" xlink:href="#a"/></g></g></g></svg>