<svg height="16" viewBox="0 0 16 16" width="16" xmlns="http://www.w3.org/2000/svg"><path d="m3 0h10c1.6568542 0 3 1.34314575 3 3v10c0 1.6568542-1.3431458 3-3 3h-10c-1.65685425 0-3-1.3431458-3-3v-10c0-1.65685425 1.34314575-3 3-3zm8.5 8c0-1.93299662-1.56700338-3.5-3.5-3.5s-3.5 1.56700338-3.5 3.5zm-3.5 5.5c3.0375661 0 5.5-2.4624339 5.5-5.5 0-3.03756612-2.4624339-5.5-5.5-5.5-3.03756612 0-5.5 2.46243388-5.5 5.5 0 3.0375661 2.46243388 5.5 5.5 5.5zm0-1c-2.48528137 0-4.5-2.0147186-4.5-4.5 0-2.48528137 2.01471863-4.5 4.5-4.5 2.4852814 0 4.5 2.01471863 4.5 4.5 0 2.4852814-2.0147186 4.5-4.5 4.5z" fill="#828282"/></svg>