<svg height="16" width="16" xmlns="http://www.w3.org/2000/svg"><g fill-rule="evenodd"><path d="m2 0h12c1.10383005 0 2 .89616995 2 2v12c0 1.10383005-.89616995 2-2 2h-12c-1.10383005 0-2-.89616995-2-2v-12c0-1.10383005.89616995-2 2-2z" fill="#f36"/><g fill="#fff"><path d="m3.04375 3.4375h9.9125c.55191502 0 1 .44808498 1 1v1.03341547c0 .55191502-.44808498 1-1 1h-9.9125c-.55191502 0-1-.44808498-1-1v-1.03341547c0-.55191502.44808498-1 1-1z"/><path d="m4.67992295 7h6.6401541c.55191503 0 1 .44808498 1 1v.47315404c0 .55191502-.44808497 1-1 1h-6.6401541c-.55191503 0-1-.44808498-1-1v-.47315404c0-.55191502.44808497-1 1-1z" opacity=".9"/><path d="m6.27654406 10.09133426h3.44691188c.53008578 0 .96044817.43036239.96044817.96044817 0 .53008577-.43036239.96044817-.96044817.96044817h-3.44691188c-.53008578 0-.96044817-.4303624-.96044817-.96044817-.00000001-.53008576.43036238-.96044816.96044817-.96044817z" opacity=".7"/><path d="m7.23055998 12.53784057h1.53888004c.37768611 0 .68431932.3066332.68431932.68431932 0 .37768611-.30663321.68431932-.68431932.68431932h-1.53888004c-.37768611 0-.68431932-.30663321-.68431932-.68431932 0-.37768612.30663321-.68431932.68431932-.68431932z" opacity=".4"/></g></g></svg>