<?xml version="1.0" encoding="UTF-8"?>
<svg width="48px" height="32px" viewBox="0 0 48 32" version="1.1" xmlns="http://www.w3.org/2000/svg" xmlns:xlink="http://www.w3.org/1999/xlink">
	<g id="Page-1" stroke="none" stroke-width="1" fill="none" fill-rule="evenodd">
		<g id="transparent-2" fill-rule="nonzero">
			<g id="transparent">
				<polygon id="Path" fill="#FFFFFF" points="0 0 48 0 48 32 0 32">
				</polygon>
				<path d="M0,0 L4,0 L4,4 L0,4 L0,0 Z M8,0 L12,0 L12,4 L8,4 L8,0 Z M4,4 L8,4 L8,8 L4,8 L4,4 Z M12,4 L16,4 L16,8 L12,8 L12,4 Z M0,8 L4,8 L4,12 L0,12 L0,8 Z M8,8 L12,8 L12,12 L8,12 L8,8 Z M4,12 L8,12 L8,16 L4,16 L4,12 Z M12,12 L16,12 L16,16 L12,16 L12,12 Z M16,0 L20,0 L20,4 L16,4 L16,0 Z M16,8 L20,8 L20,12 L16,12 L16,8 Z M20,4 L24,4 L24,8 L20,8 L20,4 Z M20,12 L24,12 L24,16 L20,16 L20,12 Z M0,16 L4,16 L4,20 L0,20 L0,16 Z M8,16 L12,16 L12,20 L8,20 L8,16 Z M4,20 L8,20 L8,24 L4,24 L4,20 Z M12,20 L16,20 L16,24 L12,24 L12,20 Z M0,24 L4,24 L4,28 L0,28 L0,24 Z M8,24 L12,24 L12,28 L8,28 L8,24 Z M4,28 L8,28 L8,32 L4,32 L4,28 Z M12,28 L16,28 L16,32 L12,32 L12,28 Z M16,16 L20,16 L20,20 L16,20 L16,16 Z M16,24 L20,24 L20,28 L16,28 L16,24 Z M20,20 L24,20 L24,24 L20,24 L20,20 Z M20,28 L24,28 L24,32 L20,32 L20,28 Z M24,0 L28,0 L28,4 L24,4 L24,0 Z M32,0 L36,0 L36,4 L32,4 L32,0 Z M28,4 L32,4 L32,8 L28,8 L28,4 Z M36,4 L40,4 L40,8 L36,8 L36,4 Z M24,8 L28,8 L28,12 L24,12 L24,8 Z M32,8 L36,8 L36,12 L32,12 L32,8 Z M28,12 L32,12 L32,16 L28,16 L28,12 Z M36,12 L40,12 L40,16 L36,16 L36,12 Z M40,0 L44,0 L44,4 L40,4 L40,0 Z M40,8 L44,8 L44,12 L40,12 L40,8 Z M44,4 L48,4 L48,8 L44,8 L44,4 Z M44,12 L48,12 L48,16 L44,16 L44,12 Z M24,16 L28,16 L28,20 L24,20 L24,16 Z M32,16 L36,16 L36,20 L32,20 L32,16 Z M28,20 L32,20 L32,24 L28,24 L28,20 Z M36,20 L40,20 L40,24 L36,24 L36,20 Z M24,24 L28,24 L28,28 L24,28 L24,24 Z M32,24 L36,24 L36,28 L32,28 L32,24 Z M28,28 L32,28 L32,32 L28,32 L28,28 Z M36,28 L40,28 L40,32 L36,32 L36,28 Z M40,16 L44,16 L44,20 L40,20 L40,16 Z M40,24 L44,24 L44,28 L40,28 L40,24 Z M44,20 L48,20 L48,24 L44,24 L44,20 Z M44,28 L48,28 L48,32 L44,32 L44,28 Z" id="Shape" fill="#D8D8D8">
				</path>
			</g>
		</g>
	</g>
</svg>
